<svg fill="#000000" xmlns="http://www.w3.org/2000/svg" viewBox="0 0 64 64" width="128px" height="128px"><path d="M 32 3 C 21.756758 3 18 8.0380771 18 11.763672 L 18 18 L 31 18 L 31 20 L 11.763672 20 C 9.5494993 20 7.2778892 20.839096 5.6347656 22.804688 C 3.991642 24.770278 3 27.771249 3 32 C 3 36.228751 3.991642 39.229721 5.6347656 41.195312 C 7.2778892 43.160905 9.5494993 44 11.763672 44 L 18 44 L 18 52.236328 C 18 55.961923 21.756758 61 32 61 C 42.243242 61 46 55.961923 46 52.236328 L 46 46 L 33 46 L 33 44 L 52.236328 44 C 54.450501 44 56.722111 43.160905 58.365234 41.195312 C 60.008358 39.229721 61 36.228751 61 32 C 61 27.771249 60.008358 24.770279 58.365234 22.804688 C 56.722111 20.839096 54.450501 20 52.236328 20 L 46.001953 20 L 46.001953 11.763672 C 46.001352 9.8509077 45.064832 7.6114375 42.832031 5.8964844 C 40.599231 4.1815312 37.117356 3 32 3 z M 32 5 C 36.809644 5 39.827582 6.110875 41.613281 7.4824219 C 43.398981 8.8539687 44.001554 10.494436 44.001953 11.763672 L 44.001953 20 L 44 20 L 44 26.908203 C 44 27.729275 43.704415 28.510901 43.214844 29.166016 C 42.561625 30.039502 41.564622 30.688896 40.470703 30.914062 C 40.197277 30.970354 39.918534 31 39.636719 31 L 24.363281 31 C 21.017805 31 18 33.681321 18 37.091797 L 18 42 L 11.763672 42 C 10.031844 42 8.4222983 41.410268 7.1699219 39.912109 C 5.9175455 38.413951 5 35.916249 5 32 C 5 28.083751 5.9175455 25.586049 7.1699219 24.087891 C 8.4222983 22.589732 10.031844 22 11.763672 22 L 33 22 L 33 16 L 20 16 L 20 11.763672 C 20 9.3792664 22.389242 5 32 5 z M 26.5 9 A 2.5 2.5 0 0 0 24 11.5 A 2.5 2.5 0 0 0 26.5 14 A 2.5 2.5 0 0 0 29 11.5 A 2.5 2.5 0 0 0 26.5 9 z M 46.001953 22 L 52.236328 22 C 53.968156 22 55.577702 22.589732 56.830078 24.087891 C 58.082455 25.586049 59 28.083751 59 32 C 59 35.916249 58.082455 38.413951 56.830078 39.912109 C 55.577702 41.410268 53.968156 42 52.236328 42 L 31 42 L 31 48 L 44 48 L 44 52.236328 C 44 54.620733 41.610758 59 32 59 C 22.389242 59 20 54.620733 20 52.236328 L 20 37.091797 C 20 36.818106 20.033638 36.548669 20.095703 36.287109 C 20.530156 34.456192 22.390573 33 24.363281 33 L 39.636719 33 C 39.845811 33 40.05389 32.989221 40.259766 32.96875 C 41.494562 32.845977 42.659208 32.362184 43.613281 31.623047 C 43.613281 31.623047 43.615234 31.623047 43.615234 31.623047 C 43.773804 31.500035 43.926048 31.369164 44.072266 31.232422 C 44.072266 31.232422 44.074219 31.232422 44.074219 31.232422 C 45.247343 30.135782 46.001953 28.613441 46.001953 26.908203 L 46.001953 22 z M 15.636719 24.068359 A 1.0001 1.0001 0 0 0 14.652344 25.082031 L 14.652344 27.082031 A 1.0001 1.0001 0 1 0 16.652344 27.082031 L 16.652344 25.082031 A 1.0001 1.0001 0 0 0 15.636719 24.068359 z M 20.201172 24.068359 A 1.0001 1.0001 0 0 0 19.216797 25.082031 L 19.216797 27.082031 A 1.0001 1.0001 0 1 0 21.216797 27.082031 L 21.216797 25.082031 A 1.0001 1.0001 0 0 0 20.201172 24.068359 z M 24.767578 24.068359 A 1.0001 1.0001 0 0 0 23.783203 25.082031 L 23.783203 27.082031 A 1.0001 1.0001 0 1 0 25.783203 27.082031 L 25.783203 25.082031 A 1.0001 1.0001 0 0 0 24.767578 24.068359 z M 29.332031 24.068359 A 1.0001 1.0001 0 0 0 28.347656 25.082031 L 28.347656 27.082031 A 1.0001 1.0001 0 1 0 30.347656 27.082031 L 30.347656 25.082031 A 1.0001 1.0001 0 0 0 29.332031 24.068359 z M 37.636719 35.986328 A 1.0001 1.0001 0 0 0 36.652344 37 L 36.652344 39 A 1.0001 1.0001 0 1 0 38.652344 39 L 38.652344 37 A 1.0001 1.0001 0 0 0 37.636719 35.986328 z M 42.201172 35.986328 A 1.0001 1.0001 0 0 0 41.216797 37 L 41.216797 39 A 1.0001 1.0001 0 1 0 43.216797 39 L 43.216797 37 A 1.0001 1.0001 0 0 0 42.201172 35.986328 z M 46.767578 35.986328 A 1.0001 1.0001 0 0 0 45.783203 37 L 45.783203 39 A 1.0001 1.0001 0 1 0 47.783203 39 L 47.783203 37 A 1.0001 1.0001 0 0 0 46.767578 35.986328 z M 51.332031 35.986328 A 1.0001 1.0001 0 0 0 50.347656 37 L 50.347656 39 A 1.0001 1.0001 0 1 0 52.347656 39 L 52.347656 37 A 1.0001 1.0001 0 0 0 51.332031 35.986328 z M 38.5 50 A 2.5 2.5 0 0 0 36 52.5 A 2.5 2.5 0 0 0 38.5 55 A 2.5 2.5 0 0 0 41 52.5 A 2.5 2.5 0 0 0 38.5 50 z"/></svg>